<?xml version="1.0" encoding="UTF-8" standalone="no"?>
<!DOCTYPE svg PUBLIC "-//W3C//DTD SVG 1.1//EN" "http://www.w3.org/Graphics/SVG/1.1/DTD/svg11.dtd">
<svg version="1.1" xmlns="http://www.w3.org/2000/svg" xmlns:xlink="http://www.w3.org/1999/xlink" preserveAspectRatio="xMidYMid meet" viewBox="0 0 640 640" width="640" height="640"><defs><path d="M450.05 4.21C459.29 4.21 467.98 7.79 474.47 14.29C476.55 16.36 493.1 32.92 495.18 34.99C508.65 48.48 508.65 70.38 495.18 83.86C479.44 99.59 400.76 178.26 259.16 319.87C400.92 461.63 479.68 540.39 495.43 556.14C501.94 562.66 505.53 571.32 505.53 580.57C505.53 589.84 501.94 598.5 495.43 605.01C493.37 607.09 476.81 623.64 474.74 625.71C468.24 632.21 459.56 635.79 450.3 635.79C441.06 635.79 432.37 632.21 425.88 625.71C397.74 597.57 172.68 372.52 144.55 344.39C138.03 337.86 134.45 329.15 134.47 319.88C134.45 310.59 138.03 301.88 144.55 295.36C200.76 239.15 397.51 42.4 425.61 14.29C432.12 7.79 440.79 4.21 450.05 4.21Z" id="b21PQfxpMd"></path><path d="M450.05 4.21C459.29 4.21 467.98 7.79 474.47 14.29C476.55 16.36 493.1 32.92 495.18 34.99C508.65 48.48 508.65 70.38 495.18 83.86C479.44 99.59 400.76 178.26 259.16 319.87C400.92 461.63 479.68 540.39 495.43 556.14C501.94 562.66 505.53 571.32 505.53 580.57C505.53 589.84 501.94 598.5 495.43 605.01C493.37 607.09 476.81 623.64 474.74 625.71C468.24 632.21 459.56 635.79 450.3 635.79C441.06 635.79 432.37 632.21 425.88 625.71C397.74 597.57 172.68 372.52 144.55 344.39C138.03 337.86 134.45 329.15 134.47 319.88C134.45 310.59 138.03 301.88 144.55 295.36C200.76 239.15 397.51 42.4 425.61 14.29C432.12 7.79 440.79 4.21 450.05 4.21Z" id="b67bg648lW"></path></defs><g><g><g><use xlink:href="#b21PQfxpMd" opacity="1" fill="#000000" fill-opacity="1"></use><g><use xlink:href="#b21PQfxpMd" opacity="1" fill-opacity="0" stroke="#000000" stroke-width="1" stroke-opacity="0"></use></g></g><g><use xlink:href="#b67bg648lW" opacity="1" fill="#000000" fill-opacity="0"></use><g><use xlink:href="#b67bg648lW" opacity="1" fill-opacity="0" stroke="#000000" stroke-width="1" stroke-opacity="0"></use></g></g></g></g></svg>